<svg width="64" height="64" viewBox="0 0 64 64" fill="none" xmlns="http://www.w3.org/2000/svg">
<g clip-path="url(#clip0_4_3)">
<path d="M32 64C49.6731 64 64 49.6731 64 32C64 14.3269 49.6731 0 32 0C14.3269 0 0 14.3269 0 32C0 49.6731 14.3269 64 32 64Z" fill="#2B2E3A"/>
<path d="M25.125 17.925C18.625 16.7437 13.4812 17.9812 11.4375 21.5312C9.90625 24.1812 10.3437 27.6875 12.5 31.4437C12.675 31.7687 13.0812 31.8875 13.4062 31.7125C13.7312 31.5375 13.85 31.1312 13.675 30.8062C13.6687 30.8 13.6625 30.7875 13.6625 30.7812C11.725 27.4 11.35 24.3687 12.6 22.2C14.3 19.25 18.8875 18.1437 24.8937 19.2437C25.2562 19.3062 25.6 19.0562 25.6625 18.6937C25.7125 18.3312 25.4812 17.9937 25.125 17.925ZM15.875 36C18.5062 38.8875 21.9187 41.6 25.8125 43.85C35.2437 49.2937 45.2813 50.75 50.2313 47.375C50.5375 47.175 50.625 46.7625 50.425 46.45C50.225 46.1437 49.8125 46.0562 49.5 46.2562C49.4938 46.2625 49.4875 46.2625 49.4813 46.2687C45.05 49.2875 35.5188 47.9062 26.4812 42.6875C22.7 40.5062 19.3937 37.8812 16.8625 35.1C16.6187 34.825 16.1937 34.8062 15.9187 35.05C15.65 35.3 15.625 35.725 15.875 36C15.875 35.9937 15.875 36 15.875 36V36Z" fill="#9FEAF9"/>
<path d="M48.6562 35.1875C52.9125 30.1562 54.4 25.1 52.3562 21.5625C50.85 18.9562 47.6687 17.5812 43.4437 17.525C43.075 17.525 42.775 17.825 42.775 18.1937C42.775 18.5562 43.0625 18.85 43.425 18.8562C47.225 18.9062 49.9687 20.0937 51.2 22.225C52.9 25.1687 51.575 29.675 47.6375 34.325C47.3937 34.6062 47.425 35.025 47.7062 35.2625C47.9875 35.5062 48.4062 35.475 48.6437 35.1937C48.65 35.1937 48.65 35.1937 48.6562 35.1875V35.1875ZM37.7125 18.1437C33.8625 18.9687 29.7687 20.5812 25.8312 22.85C16.1 28.475 9.74999 36.7625 10.6312 42.775C10.6812 43.1375 11.0187 43.3937 11.3812 43.35C11.7437 43.3 12 42.9625 11.9562 42.6V42.5812C11.1687 37.2437 17.1875 29.3875 26.5 24.0062C30.3187 21.8 34.2812 20.2437 37.9937 19.4437C38.3562 19.375 38.5875 19.025 38.5187 18.6625C38.45 18.3 38.1 18.0687 37.7375 18.1375C37.7312 18.1437 37.7187 18.1437 37.7125 18.1437V18.1437Z" fill="#9FEAF9"/>
<path d="M21.9438 46.9375C24.1688 53.15 27.8125 56.9812 31.9063 56.9812C34.8938 56.9812 37.6563 54.9437 39.8125 51.3625C40.0063 51.05 39.9125 50.6375 39.6 50.4437C39.2875 50.25 38.875 50.3437 38.6813 50.6562C38.675 50.6625 38.675 50.6687 38.6688 50.675C36.7313 53.8937 34.3563 55.65 31.9063 55.65C28.5063 55.65 25.2563 52.2375 23.2 46.4937C23.0813 46.1437 22.7063 45.9562 22.3563 46.075C22.0063 46.1937 21.8188 46.5687 21.9375 46.9187C21.9375 46.9187 21.9375 46.9312 21.9438 46.9375V46.9375ZM42.275 45.725C43.425 42.0437 44.0438 37.7937 44.0438 33.3687C44.0438 22.325 40.175 12.8 34.675 10.3562C34.3375 10.2125 33.9438 10.375 33.8 10.7125C33.6625 11.0437 33.8063 11.4187 34.1313 11.575C39.0438 13.7562 42.7125 22.7937 42.7125 33.3687C42.7125 37.6625 42.1125 41.775 41 45.325C40.8875 45.675 41.075 46.05 41.425 46.1687C41.775 46.2875 42.15 46.0937 42.2688 45.7437C42.2688 45.7375 42.2688 45.7312 42.275 45.725V45.725ZM54.8313 45.0687C54.8313 43.3062 53.4 41.875 51.6375 41.875C49.875 41.875 48.4438 43.3062 48.4438 45.0687C48.4438 46.8312 49.875 48.2625 51.6375 48.2625C53.4 48.2625 54.8313 46.8312 54.8313 45.0687ZM53.4938 45.0687C53.4938 46.0937 52.6625 46.925 51.6375 46.925C50.6125 46.925 49.7813 46.0937 49.7813 45.0687C49.7813 44.0437 50.6125 43.2125 51.6375 43.2125C52.6625 43.2125 53.4938 44.0437 53.4938 45.0687ZM12.125 48.2625C13.8875 48.2625 15.3188 46.8312 15.3188 45.0687C15.3188 43.3062 13.8875 41.875 12.125 41.875C10.3625 41.875 8.93127 43.3062 8.93127 45.0687C8.93127 46.8312 10.3625 48.2625 12.125 48.2625ZM12.125 46.925C11.1 46.925 10.2688 46.0937 10.2688 45.0687C10.2688 44.0437 11.1 43.2125 12.125 43.2125C13.15 43.2125 13.9813 44.0437 13.9813 45.0687C13.9813 46.0937 13.15 46.925 12.125 46.925Z" fill="#9FEAF9"/>
<path d="M31.9062 13.6125C33.6687 13.6125 35.1 12.1813 35.1 10.4188C35.1 8.65626 33.6687 7.22501 31.9062 7.22501C30.1437 7.22501 28.7125 8.65626 28.7125 10.4188C28.7125 12.1813 30.1437 13.6125 31.9062 13.6125ZM31.9062 12.275C30.8812 12.275 30.05 11.4438 30.05 10.4188C30.05 9.39376 30.8812 8.56251 31.9062 8.56251C32.9312 8.56251 33.7625 9.39376 33.7625 10.4188C33.7625 11.4438 32.9312 12.275 31.9062 12.275V12.275ZM32.3937 35.625C31.15 35.8938 29.9187 35.1 29.65 33.8563C29.3812 32.6125 30.175 31.3813 31.4187 31.1125C32.6625 30.8438 33.8937 31.6375 34.1625 32.8813C34.4312 34.125 33.6375 35.3563 32.3937 35.625V35.625Z" fill="#9FEAF9"/>
</g>
<defs>
<clipPath id="clip0_4_3">
<rect width="64" height="64" fill="white"/>
</clipPath>
</defs>
</svg>
